PathFileType	4	(X/Y/Z)	 subject01_standing_10_70.trc
DataRate	CameraRate	NumFrames	NumMarkers	Units	OrigDataRate	OrigDataStartFrame	OrigNumFrames
2000	100	4	49	mm	2000	251	1000
Frame#	Time	s2			lmt5			lcal			ltoe			llmal			lsh1			lsh2			lsh3			lsh4			llfc			lth1			lth2			lth3			lth4			lgt			lic			lasi			lpsi			rpsi			ric			rasi			rgt			rth1			rth2			rth3			rth4			rlfc			rsh1			rsh2			rsh4			rlmal			rcal			rmt5			rtoe			jug			c7			lacr			lua			llel			lfa			ldr			racr			rua			rlel			rfa			rdr			B3			B2			B1			
		X1	Y1	Z1	X2	Y2	Z2	X3	Y3	Z3	X4	Y4	Z4	X5	Y5	Z5	X6	Y6	Z6	X7	Y7	Z7	X8	Y8	Z8	X9	Y9	Z9	X10	Y10	Z10	X11	Y11	Z11	X12	Y12	Z12	X13	Y13	Z13	X14	Y14	Z14	X15	Y15	Z15	X16	Y16	Z16	X17	Y17	Z17	X18	Y18	Z18	X19	Y19	Z19	X20	Y20	Z20	X21	Y21	Z21	X22	Y22	Z22	X23	Y23	Z23	X24	Y24	Z24	X25	Y25	Z25	X26	Y26	Z26	X27	Y27	Z27	X28	Y28	Z28	X29	Y29	Z29	X30	Y30	Z30	X31	Y31	Z31	X32	Y32	Z32	X33	Y33	Z33	X34	Y34	Z34	X35	Y35	Z35	X36	Y36	Z36	X37	Y37	Z37	X38	Y38	Z38	X39	Y39	Z39	X40	Y40	Z40	X41	Y41	Z41	X42	Y42	Z42	X43	Y43	Z43	X44	Y44	Z44	X45	Y45	Z45	X46	Y46	Z46	X47	Y47	Z47	X48	Y48	Z48	X49	Y49	Z49	
251	2.5100	290.204315	1242.055054	-197.162888	173.052017	207.988541	-404.554840	65.231842	371.246582	-331.512390	260.520325	142.025970	-336.660278	129.028091	338.820709	-379.055817	328.695770	586.229370	-388.085297	287.760162	509.459412	-382.230621	210.532486	459.549927	-379.017578	313.800629	486.715240	-360.758148	412.307617	671.075989	-365.764130	388.900665	969.039429	-382.613495	416.681854	886.182617	-383.206512	401.825531	796.365295	-376.292725	453.634399	888.693420	-369.958923	363.469849	1104.940430	-371.088226	398.824921	1188.836304	-359.932678	479.028992	1160.675049	-301.796478	319.315094	1262.647339	-250.077606	318.719879	1278.190430	-149.038727	410.673889	1233.324463	-35.956017	470.526245	1184.680786	-89.572868	383.077545	1142.362427	-8.976024	496.704132	1021.450562	-13.933444	574.178467	977.653931	-22.366953	623.096069	904.436096	-35.218449	598.532654	1004.175720	-39.039459	676.901611	815.186401	-59.650200	610.864868	726.384949	-42.504814	562.354919	651.062073	-55.310833	581.654419	634.128479	-85.781616	394.803528	507.679230	-60.878998	313.960297	513.731689	-105.904861	461.270111	396.992401	-28.604315	569.010315	356.596527	-91.362244	815.728577	1328.163574	-187.380615	833.061401	1484.699341	-179.338776	864.997986	1474.948975	-304.585907	800.972046	1337.093262	-406.581482	738.895020	1192.233398	-453.067261	799.729187	1071.057129	-418.790100	824.582397	949.024048	-392.912537	857.103333	1452.891724	-43.252094	761.954773	1315.242065	37.472492	680.450012	1166.831909	48.832439	767.957642	1059.418091	16.430721	817.371155	954.414673	-29.461559	25.853317	23.162434	45.922146	19.564800	31.073551	-474.323639	-194.654129	887.821472	-210.446701	
252	2.5200	290.392395	1242.755249	-195.292862	168.082291	218.197830	-404.500000	64.897842	384.463013	-331.588196	253.777145	150.108398	-336.578613	127.798683	350.233704	-379.072357	335.829865	590.559692	-387.514008	292.393982	515.103394	-381.687958	213.522049	467.829346	-378.941589	317.453369	491.453552	-359.857605	421.016602	672.793152	-364.385895	393.070526	970.239258	-380.819458	422.802185	888.078308	-381.408203	409.969360	798.047485	-375.349304	459.460022	891.438232	-367.615326	363.862946	1106.229126	-369.871826	398.784119	1190.137573	-358.472931	478.816925	1161.803101	-300.519318	319.231476	1263.555298	-248.166031	319.162323	1278.652344	-147.089417	411.148071	1233.284546	-34.483273	471.103943	1184.970337	-88.172638	383.260773	1142.219604	-7.721377	496.026733	1019.904175	-12.853427	572.754089	974.882324	-21.687603	620.468567	900.857971	-34.690666	597.489136	1000.956421	-38.411011	673.099243	810.337036	-59.531597	608.927612	719.683472	-42.161396	562.226135	643.189148	-54.946514	581.970703	626.765076	-85.500542	398.066284	495.810059	-60.538097	317.426086	500.259857	-105.735168	466.507141	386.165527	-28.423307	574.948792	347.563507	-91.474319	815.614136	1328.110596	-187.652100	833.313477	1484.667358	-179.603348	864.732117	1474.769775	-305.257904	800.188110	1336.788940	-406.805695	738.025574	1192.072998	-453.057190	799.241272	1071.059570	-418.811493	824.531677	949.123230	-392.982025	857.618530	1452.818115	-43.438896	762.213501	1315.254272	37.676289	680.643860	1166.912476	49.012653	767.969177	1059.464600	16.584860	817.275269	954.417664	-29.447767	25.852348	23.154110	45.928959	19.535971	31.060429	-474.308228	-194.650253	887.838013	-210.458939	
253	2.5300	290.640625	1243.140015	-193.331924	164.067123	228.766571	-404.486572	65.849968	398.195831	-331.977112	247.642090	158.261551	-336.474762	127.806610	361.968109	-379.025635	343.940765	594.999146	-386.990509	297.864899	520.898010	-381.137604	217.557541	476.086029	-378.600067	322.102600	496.594055	-359.123016	430.617157	674.695007	-363.406677	397.301544	971.191895	-379.057068	429.112457	889.815063	-379.703827	418.420288	799.369385	-374.519897	465.376465	893.869934	-365.634552	364.236115	1107.347534	-368.932556	398.730804	1191.321411	-356.868469	478.625854	1162.781006	-299.097076	319.204895	1264.099365	-246.142410	319.650299	1278.738770	-144.972244	411.698853	1232.831299	-32.935467	471.883759	1184.911865	-86.906731	383.396423	1141.597534	-6.352941	495.235718	1017.716858	-11.641283	571.190796	971.305420	-20.986937	617.437500	896.569458	-34.097500	596.188843	997.153259	-37.635563	668.744568	804.417847	-58.998852	606.389954	712.416870	-41.663364	561.494812	634.776062	-54.428585	581.518738	618.976440	-85.114044	400.699738	483.606232	-60.146500	320.149933	486.794800	-105.429115	471.046631	374.793732	-28.400034	579.958740	338.021637	-91.614197	815.486145	1327.935791	-187.945877	833.499207	1484.514893	-180.017822	864.372925	1474.484863	-305.859589	799.284851	1336.413452	-407.158203	736.930359	1191.778442	-453.114899	798.583740	1071.057007	-418.830444	824.380981	949.199585	-392.947540	858.071106	1452.610718	-43.687000	762.461304	1315.165283	37.787922	680.738098	1166.949219	49.114685	767.912720	1059.427979	16.695248	817.194458	954.417114	-29.400568	25.841930	23.173553	45.918255	19.544718	31.091803	-474.312286	-194.620697	887.861206	-210.437988	
254	2.5400	290.997345	1243.140747	-191.379761	160.884903	239.722412	-404.473267	68.195389	412.005005	-331.682831	242.249252	166.674011	-336.554688	128.958450	373.913239	-379.030823	352.724579	599.374146	-386.403687	304.289185	526.722839	-380.605682	222.539566	484.663177	-378.676483	327.640472	501.711365	-358.407410	440.947113	676.465332	-362.462433	401.532196	971.748840	-377.344330	435.294250	891.255920	-378.186981	426.905304	800.529602	-373.789948	471.346741	896.196716	-364.022705	364.599915	1108.141357	-367.782257	398.543060	1192.089722	-355.090912	478.347687	1163.658691	-297.483582	319.193359	1264.358521	-243.969467	320.214264	1278.408691	-142.760818	412.325073	1232.049194	-31.407970	472.524109	1184.558960	-85.284798	383.509338	1140.614746	-4.825129	494.191895	1015.085693	-10.418606	569.447937	967.215515	-20.331820	614.027405	891.607300	-33.426311	595.013733	992.445801	-37.000397	663.772522	798.192871	-58.853683	603.211365	704.617981	-41.132523	560.027954	625.989136	-53.975845	580.377625	610.801025	-84.713638	402.746490	470.916443	-59.758438	322.244690	473.103485	-105.009117	474.766937	363.039978	-28.346619	584.215515	328.112518	-91.214493	815.420776	1327.648560	-188.223053	833.644287	1484.191284	-180.486893	863.970825	1474.013184	-306.655975	798.170166	1336.013794	-407.688080	735.723694	1191.514404	-453.216003	797.849670	1071.010254	-418.881958	824.312134	949.230164	-392.772461	858.630310	1452.446655	-43.945656	762.707825	1315.004028	37.789177	680.846069	1166.997314	49.095402	767.833069	1059.332031	16.821121	817.155029	954.331238	-29.366983	25.839493	23.174149	45.936146	19.561306	31.084515	-474.292633	-194.621246	887.866577	-210.403580	
